<svg xmlns="http://www.w3.org/2000/svg" viewBox="0 0 240 240" role="img" aria-labelledby="title desc">
  <title id="title">Siswa SMP astronaut penyambut</title>
  <desc id="desc">Ilustrasi siswa SMP dengan helm astronaut untuk sampul awal aplikasi Tata Surya.</desc>
  <defs>
    <radialGradient id="bg" cx="50%" cy="35%" r="70%">
      <stop offset="0" stop-color="#123a74"/>
      <stop offset="1" stop-color="#061428"/>
    </radialGradient>
    <linearGradient id="suit" x1="54" x2="186" y1="130" y2="226">
      <stop offset="0" stop-color="#f8fbff"/>
      <stop offset="1" stop-color="#7dd3fc"/>
    </linearGradient>
  </defs>
  <circle cx="120" cy="120" r="118" fill="url(#bg)"/>
  <g fill="#fff7b2">
    <circle cx="44" cy="54" r="3"/>
    <circle cx="197" cy="42" r="2.5"/>
    <circle cx="207" cy="111" r="2"/>
    <circle cx="35" cy="145" r="2"/>
    <circle cx="82" cy="28" r="2"/>
  </g>
  <circle cx="181" cy="68" r="22" fill="#facc15"/>
  <path d="M160 70c10 9 25 10 42 2-7 10-17 16-29 17-9 0-15-6-13-19Z" fill="#f59e0b" opacity=".65"/>
  <circle cx="120" cy="105" r="64" fill="#dff7ff" opacity=".92"/>
  <circle cx="120" cy="105" r="52" fill="#0f2442"/>
  <path d="M78 103c10-27 31-40 61-34 17 4 29 14 36 29-21-10-43-12-66-7-12 2-23 6-31 12Z" fill="#ffffff" opacity=".25"/>
  <path d="M83 188c4-34 28-54 37-54s33 20 37 54l6 42H77l6-42Z" fill="url(#suit)"/>
  <path d="M88 182h64l7 48H81l7-48Z" fill="#e0f2fe"/>
  <path d="M97 178h46v28H97z" fill="#0f2442" opacity=".2"/>
  <path d="M91 148c12-14 45-14 58 0l-8 23H99l-8-23Z" fill="#f2b58d"/>
  <path d="M86 97c1-29 16-49 37-49 20 0 35 17 36 47-13-7-26-11-41-11-12 0-23 4-32 13Z" fill="#172554"/>
  <path d="M88 95c7-19 22-28 39-25 12 2 23 8 31 22-23-6-47-5-70 3Z" fill="#334155"/>
  <ellipse cx="120" cy="112" rx="33" ry="36" fill="#f7c29d"/>
  <path d="M89 103c8-19 20-28 36-27 16 1 27 10 32 28-23-14-45-14-68-1Z" fill="#1e293b"/>
  <circle cx="107" cy="116" r="3.5" fill="#172033"/>
  <circle cx="132" cy="116" r="3.5" fill="#172033"/>
  <path d="M110 132c8 7 18 7 26 0" fill="none" stroke="#9f4e3f" stroke-width="4" stroke-linecap="round"/>
  <path d="M65 184c-16 10-24 25-27 44h39l8-42-20-2Z" fill="#bae6fd"/>
  <path d="M175 184c16 10 24 25 27 44h-39l-8-42 20-2Z" fill="#bae6fd"/>
  <circle cx="120" cy="191" r="13" fill="#0f2442"/>
  <path d="M113 191h14M120 184v14" stroke="#facc15" stroke-width="4" stroke-linecap="round"/>
</svg>
