<svg xmlns="http://www.w3.org/2000/svg" viewBox="0 0 240 240" role="img" aria-labelledby="title desc">
  <title id="title">Siswa SMP membaca materi</title>
  <desc id="desc">Ilustrasi siswa SMP membaca tablet materi Tata Surya.</desc>
  <defs>
    <radialGradient id="bg" cx="50%" cy="40%" r="75%">
      <stop offset="0" stop-color="#075985"/>
      <stop offset="1" stop-color="#061428"/>
    </radialGradient>
  </defs>
  <circle cx="120" cy="120" r="118" fill="url(#bg)"/>
  <g fill="#fef3c7">
    <circle cx="43" cy="53" r="2.5"/>
    <circle cx="198" cy="58" r="3"/>
    <circle cx="205" cy="151" r="2"/>
    <circle cx="64" cy="178" r="2"/>
  </g>
  <circle cx="120" cy="100" r="63" fill="#dff7ff" opacity=".9"/>
  <circle cx="120" cy="100" r="51" fill="#12213a"/>
  <path d="M81 103c11-28 33-39 64-31 14 4 24 13 30 26-27-10-59-8-94 5Z" fill="#fff" opacity=".24"/>
  <ellipse cx="120" cy="109" rx="32" ry="35" fill="#f4bd91"/>
  <path d="M88 102c6-22 19-34 39-32 15 1 26 10 32 31-12-10-25-15-38-15-13 0-24 6-33 16Z" fill="#273449"/>
  <circle cx="108" cy="113" r="3.2" fill="#172033"/>
  <circle cx="133" cy="113" r="3.2" fill="#172033"/>
  <path d="M111 129c6 5 15 5 22 0" fill="none" stroke="#99483a" stroke-width="4" stroke-linecap="round"/>
  <path d="M79 183c5-33 30-52 41-52s36 19 41 52l5 47H74l5-47Z" fill="#e0f2fe"/>
  <path d="M93 177h54v31H93z" fill="#60a5fa" opacity=".35"/>
  <rect x="61" y="160" width="118" height="67" rx="10" fill="#0f172a" stroke="#38bdf8" stroke-width="5"/>
  <rect x="73" y="173" width="94" height="41" rx="6" fill="#0b355f"/>
  <path d="M83 183h44M83 195h31M139 183h18M139 195h18" stroke="#facc15" stroke-width="5" stroke-linecap="round"/>
  <path d="M72 184c-18 7-28 21-33 44h35l10-38-12-6ZM168 184c18 7 28 21 33 44h-35l-10-38 12-6Z" fill="#bae6fd"/>
</svg>
