<svg xmlns="http://www.w3.org/2000/svg" viewBox="0 0 240 240" role="img" aria-labelledby="title desc">
  <title id="title">Siswa SMP bermain misi</title>
  <desc id="desc">Ilustrasi siswa SMP mengendalikan misi luar angkasa.</desc>
  <defs>
    <radialGradient id="bg" cx="50%" cy="38%" r="75%">
      <stop offset="0" stop-color="#0e7490"/>
      <stop offset="1" stop-color="#061428"/>
    </radialGradient>
  </defs>
  <circle cx="120" cy="120" r="118" fill="url(#bg)"/>
  <path d="M38 78c35-28 84-33 138-16" fill="none" stroke="#67e8f9" stroke-width="3" stroke-dasharray="6 7" opacity=".55"/>
  <circle cx="181" cy="69" r="21" fill="#fb923c"/>
  <g fill="#fef3c7"><circle cx="53" cy="42" r="2"/><circle cx="202" cy="132" r="2.5"/><circle cx="46" cy="163" r="2.5"/></g>
  <circle cx="120" cy="98" r="62" fill="#dff7ff" opacity=".92"/>
  <circle cx="120" cy="98" r="50" fill="#10213b"/>
  <ellipse cx="120" cy="108" rx="32" ry="35" fill="#f2b58d"/>
  <path d="M88 102c9-21 25-32 45-27 12 3 22 12 27 28-22-12-46-13-72-1Z" fill="#1f2937"/>
  <circle cx="108" cy="113" r="3.2" fill="#172033"/>
  <circle cx="133" cy="113" r="3.2" fill="#172033"/>
  <path d="M109 130c7 7 18 7 25 0" fill="none" stroke="#8f3f36" stroke-width="4" stroke-linecap="round"/>
  <path d="M80 181c5-33 29-52 40-52s35 19 40 52l6 49H74l6-49Z" fill="#e0f2fe"/>
  <path d="M96 176h48v29H96z" fill="#16a34a" opacity=".35"/>
  <rect x="57" y="160" width="126" height="54" rx="16" fill="#111827" stroke="#22d3ee" stroke-width="5"/>
  <circle cx="89" cy="187" r="12" fill="#38bdf8"/>
  <circle cx="151" cy="187" r="12" fill="#facc15"/>
  <path d="M116 182h11M121 176v12" stroke="#e5e7eb" stroke-width="5" stroke-linecap="round"/>
  <path d="M69 180c-18 9-28 25-31 48h37l7-38-13-10ZM171 180c18 9 28 25 31 48h-37l-7-38 13-10Z" fill="#bae6fd"/>
</svg>
