<svg xmlns="http://www.w3.org/2000/svg" viewBox="0 0 240 240" role="img" aria-labelledby="title desc">
  <title id="title">Siswa SMP menjelajah AR</title>
  <desc id="desc">Ilustrasi siswa SMP menggunakan ponsel untuk menjelajah AR Tata Surya.</desc>
  <defs>
    <radialGradient id="bg" cx="50%" cy="40%" r="75%">
      <stop offset="0" stop-color="#155e75"/>
      <stop offset="1" stop-color="#061428"/>
    </radialGradient>
  </defs>
  <circle cx="120" cy="120" r="118" fill="url(#bg)"/>
  <g fill="#fef3c7"><circle cx="45" cy="55" r="2.5"/><circle cx="195" cy="49" r="2.5"/><circle cx="204" cy="158" r="2"/><circle cx="63" cy="185" r="2"/></g>
  <circle cx="184" cy="82" r="19" fill="#38bdf8"/>
  <path d="M167 82h34M184 65v34" stroke="#cffafe" stroke-width="3" opacity=".65"/>
  <circle cx="120" cy="100" r="62" fill="#dff7ff" opacity=".92"/>
  <circle cx="120" cy="100" r="50" fill="#10213b"/>
  <ellipse cx="120" cy="109" rx="32" ry="35" fill="#f5bf94"/>
  <path d="M88 103c7-23 23-34 43-31 14 2 24 11 29 31-23-13-47-13-72 0Z" fill="#263246"/>
  <circle cx="108" cy="114" r="3.2" fill="#172033"/>
  <circle cx="133" cy="114" r="3.2" fill="#172033"/>
  <path d="M111 130c7 5 16 5 23 0" fill="none" stroke="#99483a" stroke-width="4" stroke-linecap="round"/>
  <path d="M80 182c5-33 29-52 40-52s35 19 40 52l6 48H74l6-48Z" fill="#e0f2fe"/>
  <path d="M94 177h52v29H94z" fill="#22d3ee" opacity=".32"/>
  <rect x="139" y="157" width="43" height="70" rx="10" fill="#0f172a" stroke="#38bdf8" stroke-width="5"/>
  <rect x="148" y="170" width="25" height="42" rx="4" fill="#0b355f"/>
  <circle cx="160.5" cy="219" r="3" fill="#e0f2fe"/>
  <path d="M71 184c-17 9-27 24-31 44h36l8-38-13-6ZM164 185c8 5 15 14 20 26l-25 10-10-32 15-4Z" fill="#bae6fd"/>
</svg>
